<svg width="137" height="109" version="1.1" xmlns="http://www.w3.org/2000/svg" desc="Created with imagetracer.js version 1.2.6" ><path fill="rgb(0,0,0)" stroke="rgb(0,0,0)" stroke-width="1" opacity="0" d="M 0 0 L 137 0 L 137 109 L 116.5 109 L 114.5 107 L 103.5 107 L 102 107.5 L 100.5 105 L 97.5 107 L 88.5 107 Q 86.5 111 78.5 109 Q 76.5 105 68.5 107 L 66.5 108 L 65.5 107 L 56.5 107 Q 55.8 109.8 51.5 109 Q 50.5 106 45.5 107 Q 44.1 109.6 39.5 109 L 37.5 107 L 23.5 107 L 21.5 109 L 0 109 L 0 0 Z M 64 11 L 49 15 L 35 24 L 21 39 L 15 51 L 11 71 L 13 86 L 16 94 L 16 99 L 19 101 L 27 101 Q 30 105 37 105 L 40 104 L 98 104 L 99 105 L 100 104 L 113 104 L 116 101 L 125 101 L 128 98 L 127 96 L 132 77 L 131 61 L 128 50 L 115 30 Q 105 18 89 13 Q 82 14 80 11 L 64 11 Z " /><path fill="rgb(0,0,0)" stroke="rgb(0,0,0)" stroke-width="1" opacity="0" d="M 66.5 16 L 75.5 16 L 76 18.5 L 77 18.5 L 78.5 16 L 80.5 19 L 81 17 Q 99.9 20.4 111 32.5 L 117 40.5 Q 110.6 40.1 109 44.5 L 106.5 51 Q 100.4 51.6 98.5 48 L 83.5 48 L 68.5 52 L 52.5 52 L 36.5 45 L 35 46.5 Q 36.7 54.7 34 58.5 L 35 60.5 L 34 65 L 31 66.5 Q 30.3 70.3 32.5 71 Q 34.8 70.3 34 72.5 L 35 73.5 L 35 89.5 L 36 95 L 20 95 L 20 89.5 L 18 85.5 L 16 69.5 L 17 68.5 L 17 59.5 L 21 48.5 Q 26.6 37.1 35.5 29 L 52.5 19 L 66.5 16 Z M 78 19 L 78 20 L 80 20 L 78 19 Z M 76 22 L 75 27 L 72 29 Q 68 28 70 32 L 73 32 L 77 36 L 79 36 L 80 33 L 83 32 Q 85 33 84 30 L 81 27 L 78 24 Q 79 21 76 22 Z M 61 34 L 56 39 L 58 44 L 61 45 L 62 42 L 65 41 Q 67 42 66 39 L 61 34 Z " /><path fill="rgb(0,0,0)" stroke="rgb(0,0,0)" stroke-width="1" opacity="0" d="M 121.5 48 L 126 59.5 L 127 73.5 Q 124.2 75.3 126 81.5 L 123 89.5 L 123 95 L 107 95 L 107 89.5 L 111 84.5 L 111 78.5 L 105 75 L 105.5 65 L 108 66 L 111.5 75 Q 117.8 76.3 119 72.5 L 122 63.5 L 122 53.5 Q 119.6 52.1 121.5 48 Z " /><path fill="rgb(0,0,0)" stroke="rgb(0,0,0)" stroke-width="1" opacity="0" d="M 59.5 64 L 74.5 65 L 82 69.5 L 82 81.5 L 78 95 L 74.5 96 L 73.5 95 L 39 94.5 L 42 82.5 Q 39.8 81.3 42.5 80 Q 44.8 80.8 44 78.5 L 47 69.5 L 50.5 66 L 59.5 64 Z " /><path fill="rgb(182,140,89)" stroke="rgb(182,140,89)" stroke-width="1" opacity="0.984313725490196" d="M 114.5 42 L 115.5 44 L 117 43.5 L 121 54.5 L 121 58.5 L 121 60.5 L 119 66.5 L 120 67.5 Q 116.9 69.3 118.5 71 Q 115.9 70.3 117 73 L 113.5 73 L 111 68 L 109 67.5 L 109 65.5 L 106.5 60 L 105.5 63 L 104.5 60 L 103 69.5 L 104 72.5 L 103 76 L 106 76.5 L 103 77 Q 101.3 86 105 90.5 Q 102.5 92 106 93.5 Q 107.1 96.8 104.5 96 L 104.5 97 L 122.5 97 L 123.5 96 Q 126.5 97.5 123.5 99 L 121.5 100 L 119.5 99 L 117.5 99 L 112 100.5 L 112.5 102 L 32.5 102 L 31.5 103 L 28.5 99 Q 23.7 97.7 22.5 100 L 20.5 99 L 19 99.5 L 18 97.5 L 19.5 97 L 21 97.5 L 21.5 96 L 22.5 97 L 80.5 97 L 80 95.5 L 79 92.5 L 81 92 L 80 89.5 L 82 89 L 84 79.5 L 83 76.5 L 86 73.5 L 85 70 L 83 70 L 83 67 Q 80.3 68.1 81 65.5 L 79 65.5 Q 79.8 63.3 77.5 64 Q 76 66.5 74.5 63 L 69.5 64 L 67.5 62 L 58.5 62 L 54.5 64 L 51.5 62 L 51 64 Q 48 63 49 66 L 45.5 66 L 46 67.5 L 44 72.5 L 45 74.5 L 43 74.5 L 44 76.5 L 42 77 L 41.5 79 L 39.5 79 L 37.5 80 L 36 78.5 L 36 70.5 L 37 70.5 L 37.5 79 L 39 76.5 L 38 75.5 L 38 48.5 L 40 49.5 L 40.5 51 L 41.5 49 L 44 49.5 L 44.5 51 L 46 50.5 Q 45.3 52.8 47.5 52 L 51.5 54 L 54.5 53 Q 56.3 55.8 62.5 54 L 66.5 54 L 69.5 52 L 72.5 53 L 75.5 51 L 77.5 51 L 79.5 50 L 81.5 50 L 83.5 49 L 85.5 49 L 92.5 48 L 97.5 51 L 98.5 49 L 99 51 L 103 52.5 L 103 54 Q 106.7 52.5 106 55.5 L 107 55.5 L 111 46.5 L 110.5 45 L 114.5 42 Z " /><path fill="rgb(182,140,89)" stroke="rgb(182,140,89)" stroke-width="1" opacity="0.984313725490196" d="M 37.5 46 L 37 47.5 L 36.5 51 L 36 47.5 L 37.5 46 Z " /><path fill="rgb(182,140,89)" stroke="rgb(182,140,89)" stroke-width="1" opacity="0.984313725490196" d="M 36.5 53 L 37 65.5 L 36 65.5 L 36.5 53 Z " /><path fill="rgb(182,140,89)" stroke="rgb(182,140,89)" stroke-width="1" opacity="0.984313725490196" d="M 33.5 67 L 35 67.5 L 32.5 69 L 33.5 67 Z " /><path fill="rgb(182,140,89)" stroke="rgb(182,140,89)" stroke-width="1" opacity="0.984313725490196" d="M 107.5 79 L 108 83.5 L 107 83.5 L 107.5 79 Z " /><path fill="rgb(182,140,89)" stroke="rgb(182,140,89)" stroke-width="1" opacity="0.984313725490196" d="M 40.5 82 L 39.5 84 L 40.5 82 Z " /><path fill="rgb(182,140,89)" stroke="rgb(182,140,89)" stroke-width="1" opacity="0.984313725490196" d="M 37.5 86 L 36.5 88 L 37.5 86 Z " /><path fill="rgb(182,140,89)" stroke="rgb(182,140,89)" stroke-width="1" opacity="0.984313725490196" d="M 38.5 90 L 39 91.5 L 37 92.5 L 38.5 90 Z " /><path fill="rgb(84,102,89)" stroke="rgb(84,102,89)" stroke-width="1" opacity="0.8" d="M 61.5 13 L 81.5 13 L 92.5 16 Q 106.1 21.4 115 31.5 Q 123.7 40.8 128 54.5 L 130 64.5 L 130 77.5 L 126 93 Q 123 94.3 124 90.5 L 128 76.5 L 128 64.5 Q 123.9 41.6 109.5 29 Q 100.2 19.8 85.5 16 L 80.5 15 L 62.5 15 L 48.5 19 L 34 28 Q 35.1 30.7 32.5 30 L 31 33 Q 28.3 31.9 29 34.5 Q 14.4 47.9 15 76.5 L 19 93 Q 16.3 94.1 17 91.5 L 13 77.5 L 13 64.5 L 18 46.5 L 27 32 L 30 30.5 L 30 29 L 32 29 Q 30.9 26.3 33.5 27 L 40.5 21 L 50.5 16 L 61.5 13 Z " /><path fill="rgb(84,102,89)" stroke="rgb(84,102,89)" stroke-width="1" opacity="0.8" d="M 77.5 25 L 79 29 L 83 30.5 L 78 33.5 L 77.5 36 L 74.5 31 L 72 30.5 L 77 26.5 L 77.5 25 Z " /><path fill="rgb(84,102,89)" stroke="rgb(84,102,89)" stroke-width="1" opacity="0.8" d="M 60.5 36 L 62.5 39 L 64 39.5 L 61 41.5 L 60.5 43 L 56 39.5 L 60.5 36 Z " /><path fill="rgb(84,102,89)" stroke="rgb(84,102,89)" stroke-width="1" opacity="0.8" d="M 112.5 43 L 111.5 45 L 112.5 43 Z " /><path fill="rgb(84,102,89)" stroke="rgb(84,102,89)" stroke-width="1" opacity="0.8" d="M 117.5 44 Q 120.5 46 120 51.5 L 119 51.5 L 117.5 44 Z " /><path fill="rgb(84,102,89)" stroke="rgb(84,102,89)" stroke-width="1" opacity="0.8" d="M 37.5 47 L 41 48.5 L 39.5 49 L 37.5 47 Z " /><path fill="rgb(84,102,89)" stroke="rgb(84,102,89)" stroke-width="1" opacity="0.8" d="M 108.5 51 L 108 52.5 L 106.5 56 L 106 54 L 103 53.5 Q 107.3 53.8 108.5 51 Z " /><path fill="rgb(84,102,89)" stroke="rgb(84,102,89)" stroke-width="1" opacity="0.8" d="M 70.5 52 L 73 52.5 L 70.5 53 L 70.5 52 Z " /><path fill="rgb(84,102,89)" stroke="rgb(84,102,89)" stroke-width="1" opacity="0.8" d="M 104.5 60 L 105.5 63 L 106.5 60 L 110 66.5 L 106.5 64 Q 101.8 65.2 104.5 60 Z " /><path fill="rgb(84,102,89)" stroke="rgb(84,102,89)" stroke-width="1" opacity="0.8" d="M 51.5 62 L 54 63.5 L 49.5 65 L 47 64.5 Q 48.2 61.8 49.5 64 Q 52 64.7 51.5 62 Z " /><path fill="rgb(84,102,89)" stroke="rgb(84,102,89)" stroke-width="1" opacity="0.8" d="M 58.5 62 L 68 62.5 L 58.5 63 L 58.5 62 Z " /><path fill="rgb(84,102,89)" stroke="rgb(84,102,89)" stroke-width="1" opacity="0.8" d="M 72.5 63 L 75 63.5 L 72.5 64 L 72.5 63 Z " /><path fill="rgb(84,102,89)" stroke="rgb(84,102,89)" stroke-width="1" opacity="0.8" d="M 45.5 66 L 48 66.5 Q 45.9 69.8 45.5 66 Z " /><path fill="rgb(84,102,89)" stroke="rgb(84,102,89)" stroke-width="1" opacity="0.8" d="M 103.5 67 L 104 69.5 L 103 69.5 L 103.5 67 Z " /><path fill="rgb(84,102,89)" stroke="rgb(84,102,89)" stroke-width="1" opacity="0.8" d="M 110.5 68 L 113.5 73 L 116 73.5 L 112.5 74 Q 108.9 72.1 110.5 68 Z " /><path fill="rgb(84,102,89)" stroke="rgb(84,102,89)" stroke-width="1" opacity="0.8" d="M 43.5 70 L 45 72.5 L 44 72.5 L 43.5 70 Z " /><path fill="rgb(84,102,89)" stroke="rgb(84,102,89)" stroke-width="1" opacity="0.8" d="M 38.5 76 L 40.5 79 L 38.5 76 Z " /><path fill="rgb(84,102,89)" stroke="rgb(84,102,89)" stroke-width="1" opacity="0.8" d="M 103 77 Q 108 76.2 110 79.5 L 109.5 83 L 109 79 L 107 79 L 107 85 L 109 85.5 L 104.5 89 L 103 86.5 L 103 77 Z " /><path fill="rgb(84,102,89)" stroke="rgb(84,102,89)" stroke-width="1" opacity="0.8" d="M 84.5 78 L 84 79.5 L 83.5 82 L 83 79.5 L 84.5 78 Z " /><path fill="rgb(84,102,89)" stroke="rgb(84,102,89)" stroke-width="1" opacity="0.8" d="M 36.5 79 L 39 79.5 Q 40.9 88.4 37.5 92 L 37 87.5 L 37 85.5 L 36.5 79 Z " /><path fill="rgb(84,102,89)" stroke="rgb(84,102,89)" stroke-width="1" opacity="0.8" d="M 82.5 83 L 83 85.5 L 81.5 89 L 81 86.5 L 82.5 83 Z " /><path fill="rgb(84,102,89)" stroke="rgb(84,102,89)" stroke-width="1" opacity="0.8" d="M 79.5 93 L 81 96.5 L 22.5 97 L 22.5 96 L 78.5 96 L 79.5 93 Z " /><path fill="rgb(84,102,89)" stroke="rgb(84,102,89)" stroke-width="1" opacity="0.8" d="M 17 96 L 21 96.5 L 18 97.5 L 18.5 99 L 17 96 Z " /><path fill="rgb(84,102,89)" stroke="rgb(84,102,89)" stroke-width="1" opacity="0.8" d="M 104.5 96 L 123 96.5 L 104.5 97 L 104.5 96 Z " /><path fill="rgb(84,102,89)" stroke="rgb(84,102,89)" stroke-width="1" opacity="0.8" d="M 124.5 96 Q 126.8 95.3 126 97.5 L 122.5 100 L 122.5 99 L 125 97.5 L 124.5 96 Z " /><path fill="rgb(84,102,89)" stroke="rgb(84,102,89)" stroke-width="1" opacity="0.8" d="M 23.5 99 L 29 99.5 L 23.5 100 L 23.5 99 Z " /><path fill="rgb(84,102,89)" stroke="rgb(84,102,89)" stroke-width="1" opacity="0.8" d="M 115.5 99 L 118 99.5 L 115.5 100 L 115.5 99 Z " /><path fill="rgb(84,102,89)" stroke="rgb(84,102,89)" stroke-width="1" opacity="0.8" d="M 32.5 102 L 112 102.5 L 32.5 103 L 32.5 102 Z " /><path fill="rgb(84,102,89)" stroke="rgb(84,102,89)" stroke-width="1" opacity="0.8" d="M 99.5 106 L 100 107.5 L 98.5 109 L 89.5 109 L 89.5 108 L 98.5 108 L 99.5 106 Z " /><path fill="rgb(84,102,89)" stroke="rgb(84,102,89)" stroke-width="1" opacity="0.8" d="M 23.5 108 L 32 108.5 L 23.5 109 L 23.5 108 Z " /><path fill="rgb(84,102,89)" stroke="rgb(84,102,89)" stroke-width="1" opacity="0.8" d="M 34.5 108 L 37 108.5 L 34.5 109 L 34.5 108 Z " /><path fill="rgb(84,102,89)" stroke="rgb(84,102,89)" stroke-width="1" opacity="0.8" d="M 59.5 108 L 65 108.5 L 59.5 109 L 59.5 108 Z " /><path fill="rgb(84,102,89)" stroke="rgb(84,102,89)" stroke-width="1" opacity="0.8" d="M 69.5 108 L 76 108.5 L 69.5 109 L 69.5 108 Z " /><path fill="rgb(84,102,89)" stroke="rgb(84,102,89)" stroke-width="1" opacity="0.8" d="M 104.5 108 L 113 108.5 L 104.5 109 L 104.5 108 Z " /><path fill="rgb(218,224,213)" stroke="rgb(218,224,213)" stroke-width="1" opacity="0.23921568627450981" d="M 63.5 11 L 79.5 11 Q 82.4 13.6 88.5 13 Q 104.6 18.4 115 29.5 L 128 49.5 L 131 60.5 L 132 76.5 L 127 95.5 L 128 97.5 L 124.5 101 Q 114.8 98.8 112.5 104 L 99 104.5 L 102 106.5 L 102.5 108 L 103.5 107 L 114.5 107 L 115.5 109 Q 112 106.5 104.5 108 L 99.5 109 L 100 107.5 L 99.5 106 L 97.5 108 Q 90.7 106.7 87.5 109 L 88.5 107 L 97.5 107 L 99 105.5 L 97.5 104 L 39.5 104 L 36.5 105 Q 29.5 105 26.5 101 L 18.5 101 L 16 98.5 L 16 93.5 L 13 85.5 L 11 70.5 L 15 50.5 L 21 38.5 L 34.5 24 L 48.5 15 L 63.5 11 Z M 62 13 Q 49 15 41 21 L 34 27 Q 31 26 32 29 L 30 29 L 30 31 L 27 32 L 18 47 L 13 65 L 13 78 L 17 92 Q 16 94 19 93 L 15 77 Q 14 48 29 35 Q 28 32 31 33 L 33 30 Q 35 31 34 28 Q 45 18 63 15 L 81 15 L 86 16 Q 100 20 110 29 Q 124 42 128 65 L 128 77 L 124 91 Q 123 94 126 93 L 130 78 L 130 65 L 128 55 Q 124 41 115 32 Q 106 21 93 16 L 82 13 L 62 13 Z M 67 16 L 53 19 L 36 29 Q 27 37 21 49 L 17 60 L 17 69 L 16 70 L 18 86 L 20 90 L 20 95 L 36 95 L 35 90 L 35 74 L 34 73 Q 35 70 33 71 Q 30 70 31 67 L 34 65 L 35 61 L 34 59 Q 37 55 35 47 L 37 45 L 53 52 L 69 52 L 84 48 L 90 49 L 63 54 L 51 53 L 44 49 L 41 50 L 41 49 L 40 48 Q 38 44 36 48 L 37 66 L 37 49 L 38 49 L 38 79 L 37 71 L 36 71 L 36 80 L 37 81 Q 39 86 36 88 L 37 93 L 39 92 L 39 85 L 41 84 L 41 83 L 39 83 Q 37 78 42 79 L 45 75 L 46 69 L 52 64 Q 56 65 58 63 L 76 64 L 82 67 Q 85 66 83 70 L 85 70 L 85 75 Q 81 76 84 78 L 79 96 L 75 96 L 78 95 L 82 82 L 82 70 L 78 66 L 68 64 L 60 64 L 51 66 L 47 70 L 44 79 Q 45 81 43 80 Q 40 81 42 83 L 39 95 L 74 95 L 74 96 L 18 96 L 17 98 L 20 100 L 30 100 L 31 102 L 32 103 L 112 103 L 113 100 L 124 100 L 126 98 L 126 96 L 106 96 L 105 89 L 109 86 L 107 85 L 109 79 L 103 76 L 104 73 L 104 65 L 107 64 Q 110 67 111 73 Q 112 75 116 74 L 119 71 L 121 63 L 120 49 L 118 45 L 115 42 L 113 43 L 110 46 L 109 51 L 106 53 L 104 53 L 99 49 L 94 49 L 94 48 L 99 48 Q 100 52 107 51 L 109 45 Q 111 40 117 41 L 111 33 Q 100 20 81 17 L 80 20 L 76 19 L 76 16 L 67 16 Z M 79 16 L 77 18 Q 76 20 80 19 L 79 16 Z M 122 48 Q 120 52 122 54 L 122 64 L 119 73 Q 118 76 112 75 L 108 66 L 106 65 L 105 75 L 111 79 L 111 85 L 107 90 L 107 95 L 123 95 L 123 90 L 126 82 Q 124 75 127 74 L 126 60 L 122 48 Z M 32 67 L 33 69 L 36 68 L 37 69 L 37 67 L 32 67 Z M 110 79 L 109 83 L 110 83 L 110 79 Z " /><path fill="rgb(218,224,213)" stroke="rgb(218,224,213)" stroke-width="1" opacity="0.23921568627450981" d="M 76 22 Q 78.7 20.9 78 23.5 L 80.5 27 L 84 29.5 Q 85.1 32.8 82.5 32 L 80 33 L 78.5 36 L 78 33.5 L 83 30.5 L 79 29 L 77.5 25 L 74.5 29 L 72 30.5 L 76 32.5 L 77 35.5 L 72.5 32 Q 68.3 33.1 70 29 L 75 27 L 76 22 Z " /><path fill="rgb(218,224,213)" stroke="rgb(218,224,213)" stroke-width="1" opacity="0.23921568627450981" d="M 60.5 34 L 66 38.5 Q 67.1 41.8 64.5 41 L 62 42 L 60.5 45 L 58 43.5 L 56 40.5 L 57.5 40 L 61 42.5 L 62.5 40 L 64 39.5 L 61 37.5 L 60.5 36 L 56.5 39 L 60.5 34 Z " /><path fill="rgb(218,224,213)" stroke="rgb(218,224,213)" stroke-width="1" opacity="0.23921568627450981" d="M 23.5 107 L 37.5 107 L 39 108.5 L 37.5 108 L 23.5 108 L 22.5 109 L 23.5 107 Z " /><path fill="rgb(218,224,213)" stroke="rgb(218,224,213)" stroke-width="1" opacity="0.23921568627450981" d="M 45.5 107 Q 50 106 51 108.5 L 48.5 109 L 46.5 108 L 43.5 109 L 43.5 108 L 45.5 107 Z " /><path fill="rgb(218,224,213)" stroke="rgb(218,224,213)" stroke-width="1" opacity="0.23921568627450981" d="M 56.5 107 Q 64 105.5 67.5 108 L 68.5 107 L 76.5 107 L 77.5 109 L 69.5 108 L 65.5 109 Q 63.8 106.3 57.5 108 L 55.5 109 L 56.5 107 Z " /></svg>